<svg width="75" height="26" viewBox="0 0 75 26" fill="none" xmlns="http://www.w3.org/2000/svg">
<path d="M47.9039 9.61529L47.9351 9.64533L47.9671 9.61529C50.1013 8.31481 51.8281 6.80245 53.1473 5.04781L53.1785 4.98752L51.0747 4.14062L51.0435 4.17066C49.9764 5.68322 48.4371 7.01374 46.4278 8.07267L46.3652 8.10274L46.4278 8.13297L47.904 9.61529H47.9039Z" fill="black"/>
<path d="M37.0801 5.79648H43.2651V8.76049H37.3939V8.00468H42.4484V6.55245H35.3223V10.1827H44.1128C44.8661 10.1827 45.4632 9.60738 45.4632 8.88161V4.34422H36.1067L35.3223 3.89062L35.3535 5.79642H37.0801V5.79648Z" fill="black"/>
<path d="M57.6239 4.53131V7.13281H63.5262V7.34409C63.4004 10.3389 62.9609 12.7284 62.2388 14.453C61.1717 16.9026 59.2874 18.8084 56.6191 20.1096L58.2834 21.9544C61.1405 20.442 63.2123 18.2939 64.4052 15.4811C65.284 13.4849 65.818 10.7324 66.0069 7.34409V7.16287H71.7834V7.37489C71.501 17.0237 71.6891 18.5663 71.2809 19.1108C71.0294 19.4137 70.6219 19.5343 70.1192 19.5343C68.8951 19.5343 67.9217 19.5041 67.1365 19.474L67.8898 21.7423C68.5181 21.7731 69.1146 21.7731 69.6166 21.7731C70.3393 21.7731 70.967 21.8032 71.3752 21.7423C72.3168 21.5911 73.102 21.2587 73.5726 20.563C74.0434 19.8673 73.9491 16.9333 74.2947 6.225L74.3261 5.16663L58.4715 5.10577L57.6239 4.53125L57.6239 4.53131Z" fill="black"/>
<path d="M46.4654 11.12H41.4109L40.9713 10.4844H38.7739L39.2127 11.12H34.6288L34.0645 12.6926H44.8018C45.7439 12.7234 46.4654 11.9969 46.4654 11.12Z" fill="black"/>
<path d="M51.5741 9.58311C50.507 11.1257 48.7802 12.5171 46.5196 13.7573L46.457 13.7873L46.5196 13.8176L47.9645 15.2398L47.995 15.2698L48.0263 15.2398C50.2869 13.9085 52.1707 12.275 53.6154 10.3999L53.6466 10.3391L51.6061 9.49219L51.5741 9.58311H51.5741Z" fill="black"/>
<path d="M51.953 15.1462C50.7283 17.2634 48.7509 18.988 46.0819 20.2582L46.0195 20.2884L46.0819 20.3493L47.5261 21.952L47.5575 21.9822L47.5894 21.952C50.352 20.4396 52.5182 18.4134 54.0255 15.9028L54.0569 15.8419L51.985 15.0859L51.953 15.1462Z" fill="black"/>
<path d="M45.6814 20.3828L45.65 20.2919C45.273 19.5662 44.7705 18.7193 44.1739 17.8115L44.1427 17.7812L42.3535 18.538L42.3841 18.5981C43.0436 19.657 43.5776 20.6552 43.9234 21.5321L43.9546 21.5929L45.8695 20.7152L45.7445 20.4431L45.6814 20.3828H45.6814Z" fill="black"/>
<path d="M43.2631 15.8465C43.2631 15.9676 43.1686 16.0585 43.043 16.0585H37.3914V15.0599H43.2632V15.8465H43.2631ZM45.3668 16.1797V13.5781H35.3516V17.48H39.1812V20.1115C39.1812 20.323 39.0563 20.4442 38.805 20.4442H37.5802H37.4858L37.5178 20.505C37.7683 21.0495 37.9566 21.5632 38.0829 22.0777V22.1077H38.1141C39.3069 22.1077 40.1234 22.0174 40.5316 21.8053C41.0655 21.594 41.3163 21.0187 41.3163 20.1418V17.4499H43.9539C44.7697 17.48 45.3668 16.9054 45.3668 16.1797L45.3668 16.1797Z" fill="black"/>
<path d="M37.863 18.3257L35.8857 17.7812L35.8537 17.8113C35.3829 18.8102 34.8178 19.657 34.1269 20.3828L34.0957 20.4128L34.347 20.564L35.6975 21.4718L35.728 21.502L35.7593 21.4718C36.5446 20.564 37.2353 19.5059 37.8006 18.3558L37.863 18.3257Z" fill="black"/>
<path fill-rule="evenodd" clip-rule="evenodd" d="M12.9979 0C20.1774 0 25.9979 5.8206 25.9979 13C25.9979 20.1794 20.1774 26 12.9979 26C5.81866 26 -0.00195312 20.1794 -0.00195312 13C-0.00195312 5.8206 5.81866 0 12.9979 0Z" fill="#E7323B"/>
<path fill-rule="evenodd" clip-rule="evenodd" d="M14.986 8.28662C15.95 8.3355 16.7187 9.13215 16.7187 10.1099C16.7187 11.0877 15.95 11.8869 14.986 11.9356V11.9378H14.8931H11.135V11.9356C11.121 11.9356 11.1093 11.9378 11.0955 11.9378C10.0874 11.9378 9.26984 11.1204 9.26984 10.1099C9.26984 9.10181 10.0874 8.28433 11.0955 8.28433C11.1093 8.28433 11.121 8.28433 11.135 8.28433H14.8931H14.986V8.28662ZM15.3368 6.41933C17.3273 6.47498 18.9229 8.10773 18.9229 10.1099C18.9229 12.1144 17.3273 13.7449 15.3368 13.803V13.8052H15.2299H10.7356C8.69386 13.8052 7.04242 12.1516 7.04242 10.1099C7.04242 8.07062 8.69386 6.41688 10.7356 6.41688H15.2299H15.3368V6.41933ZM12.8725 21.2981C13.0142 21.4305 13.1022 21.6211 13.1022 21.8298C13.1022 22.2341 12.7748 22.5592 12.3729 22.5592C12.1454 22.5592 11.9409 22.4571 11.8085 22.2945C10.803 21.2075 10.1896 19.7558 10.1896 18.1601C10.1896 17.0245 10.5009 15.9584 11.0445 15.0479H10.5312H10.5264C8.62182 15.0479 6.98677 13.9051 6.26674 12.27C5.44679 12.1748 4.81032 11.485 4.80111 10.6417H4.79883V10.6208V9.6013V9.58961H4.80111C4.80576 8.76745 5.40741 8.08925 6.19236 7.96153C6.8521 6.32633 8.45468 5.17188 10.3244 5.17188C10.394 5.17188 10.4614 5.17416 10.5312 5.17661V5.17188H15.3785V5.17661C15.4459 5.17416 15.5132 5.17188 15.5806 5.17188C17.448 5.17188 19.0461 6.32173 19.7081 7.94984C20.5325 8.04268 21.176 8.73953 21.1829 9.58961V9.6013V10.6208V10.6417H21.1804C21.1712 11.5105 20.493 12.2189 19.636 12.277C18.9136 13.9098 17.2785 15.0479 15.3786 15.0479H15.0905C15.5806 15.719 15.8734 16.5436 15.8734 17.4402C15.8734 18.5969 15.3855 19.6398 14.6076 20.3759L14.6051 20.3736C14.4727 20.499 14.2938 20.5759 14.0965 20.5759C13.6899 20.5759 13.3577 20.2459 13.3577 19.8371C13.3577 19.6071 13.4625 19.4028 13.6273 19.2681C14.0987 18.8036 14.3938 18.1554 14.3938 17.4402C14.3938 17.1963 14.3589 16.9593 14.2962 16.7364C14.18 16.33 13.892 15.8236 13.6041 15.5101C13.5181 15.4149 13.4275 15.3288 13.3276 15.2475C13.2394 15.1757 13.1464 15.1083 13.0489 15.0479H12.8259C12.0897 15.8701 11.6391 16.9547 11.6391 18.1462C11.6391 19.3634 12.1083 20.4689 12.8726 21.2958V21.2981H12.8725Z" fill="white"/>
</svg>
